<svg width="35" height="35" viewBox="0 0 35 35" fill="none" xmlns="http://www.w3.org/2000/svg">
<circle cx="17.5" cy="17.5" r="17.5" fill="black" fill-opacity="0.1"/>
<g clip-path="url(#clip0_119_2)">
<path d="M19.1199 17L23.1899 12.94C23.3473 12.8059 23.4752 12.6407 23.5657 12.4548C23.6561 12.269 23.7072 12.0664 23.7157 11.8598C23.7241 11.6533 23.6898 11.4472 23.6148 11.2545C23.5399 11.0619 23.4259 10.8868 23.2801 10.7403C23.1342 10.5937 22.9597 10.4789 22.7674 10.4031C22.5751 10.3272 22.3692 10.2919 22.1626 10.2994C21.956 10.3069 21.7532 10.357 21.5669 10.4466C21.3806 10.5362 21.2148 10.6633 21.0799 10.82L16.9999 14.88L12.9399 10.81C12.8026 10.6626 12.637 10.5444 12.453 10.4624C12.269 10.3805 12.0704 10.3364 11.869 10.3328C11.6676 10.3293 11.4675 10.3663 11.2808 10.4418C11.094 10.5172 10.9243 10.6295 10.7819 10.7719C10.6394 10.9144 10.5271 11.084 10.4517 11.2708C10.3763 11.4576 10.3392 11.6576 10.3428 11.859C10.3463 12.0605 10.3904 12.2591 10.4724 12.4431C10.5544 12.6271 10.6726 12.7927 10.8199 12.93L14.8799 17L10.8099 21.06C10.529 21.3413 10.3713 21.7225 10.3713 22.12C10.3713 22.5175 10.529 22.8987 10.8099 23.18C11.0929 23.4615 11.4758 23.6195 11.8749 23.6195C12.2741 23.6195 12.657 23.4615 12.9399 23.18L16.9999 19.12L21.0599 23.19C21.1974 23.3316 21.3623 23.4437 21.5446 23.5193C21.7268 23.595 21.9226 23.6327 22.1199 23.63C22.4164 23.6297 22.7062 23.5416 22.9526 23.3768C23.199 23.2119 23.3911 22.9778 23.5045 22.7038C23.6179 22.4299 23.6476 22.1285 23.5899 21.8377C23.5321 21.5469 23.3895 21.2798 23.1799 21.07L19.1199 17Z" fill="black" fill-opacity="0.5"/>
</g>
<defs>
<clipPath id="clip0_119_2">
<rect width="21" height="21" fill="white" transform="translate(7 7)"/>
</clipPath>
</defs>
</svg>
