<svg width="30" height="30" viewBox="0 0 30 30" fill="none" xmlns="http://www.w3.org/2000/svg">
<circle cx="15" cy="15" r="15" fill="#787880" fill-opacity="0.16"/>
<g clip-path="url(#clip0_203_1067)">
<path d="M10.8516 15.7005C10.8516 15.2214 10.6849 14.8151 10.3516 14.4818C10.0182 14.1484 9.60677 13.9818 9.11719 13.9818C8.80469 13.9818 8.51562 14.0599 8.25 14.2162C7.98958 14.3672 7.78125 14.5729 7.625 14.8333C7.47396 15.0938 7.39844 15.3828 7.39844 15.7005C7.39844 16.013 7.47396 16.2995 7.625 16.5599C7.78125 16.8203 7.98958 17.0287 8.25 17.1849C8.51562 17.3412 8.80469 17.4193 9.11719 17.4193C9.4349 17.4193 9.72396 17.3412 9.98438 17.1849C10.2448 17.0287 10.4531 16.8203 10.6094 16.5599C10.7708 16.2995 10.8516 16.013 10.8516 15.7005ZM16.6953 15.7005C16.6953 15.2214 16.5286 14.8151 16.1953 14.4818C15.8672 14.1484 15.4635 13.9818 14.9844 13.9818C14.6667 13.9818 14.3776 14.0599 14.1172 14.2162C13.8568 14.3672 13.6484 14.5729 13.4922 14.8333C13.3411 15.0938 13.2656 15.3828 13.2656 15.7005C13.2656 16.013 13.3411 16.2995 13.4922 16.5599C13.6484 16.8203 13.8568 17.0287 14.1172 17.1849C14.3776 17.3412 14.6667 17.4193 14.9844 17.4193C15.2969 17.4193 15.5807 17.3412 15.8359 17.1849C16.0964 17.0287 16.3047 16.8203 16.4609 16.5599C16.6172 16.2995 16.6953 16.013 16.6953 15.7005ZM22.5625 15.7005C22.5625 15.2214 22.3958 14.8151 22.0625 14.4818C21.7344 14.1484 21.3281 13.9818 20.8438 13.9818C20.526 13.9818 20.237 14.0599 19.9766 14.2162C19.7161 14.3672 19.5078 14.5729 19.3516 14.8333C19.1953 15.0938 19.1172 15.3828 19.1172 15.7005C19.1172 16.013 19.1953 16.2995 19.3516 16.5599C19.5078 16.8203 19.7161 17.0287 19.9766 17.1849C20.237 17.3412 20.526 17.4193 20.8438 17.4193C21.1562 17.4193 21.4427 17.3412 21.7031 17.1849C21.9635 17.0287 22.1719 16.8203 22.3281 16.5599C22.4844 16.2995 22.5625 16.013 22.5625 15.7005Z" fill="white"/>
</g>
<defs>
<clipPath id="clip0_203_1067">
<rect width="18" height="21" fill="white" transform="translate(6 5.33334)"/>
</clipPath>
</defs>
</svg>
