<svg width="18" height="18" viewBox="0 0 18 18" fill="none" xmlns="http://www.w3.org/2000/svg">
<path d="M0.890137 7.44629C0.890137 8.35938 1.06169 9.21712 1.40479 10.0195C1.74788 10.8164 2.2238 11.5192 2.83252 12.1279C3.44124 12.7367 4.14404 13.2126 4.94092 13.5557C5.74333 13.8988 6.60107 14.0703 7.51416 14.0703C8.23356 14.0703 8.91976 13.9596 9.57275 13.7383C10.2257 13.5169 10.8234 13.2126 11.3657 12.8252L15.4497 16.9175C15.5493 17.0116 15.6572 17.0807 15.7734 17.125C15.8952 17.1748 16.0225 17.1997 16.1553 17.1997C16.3434 17.1997 16.5094 17.1554 16.6533 17.0669C16.7972 16.9839 16.9079 16.8677 16.9854 16.7183C17.0684 16.5688 17.1099 16.4028 17.1099 16.2202C17.1099 16.0874 17.085 15.9629 17.0352 15.8467C16.9909 15.7305 16.9245 15.6281 16.8359 15.5396L12.7769 11.4556C13.203 10.9022 13.535 10.2852 13.7729 9.60449C14.0164 8.92383 14.1382 8.20443 14.1382 7.44629C14.1382 6.5332 13.9666 5.67822 13.6235 4.88135C13.2804 4.07894 12.8045 3.37337 12.1958 2.76465C11.5871 2.15592 10.8815 1.68001 10.0791 1.33691C9.28223 0.993815 8.42725 0.822266 7.51416 0.822266C6.60107 0.822266 5.74333 0.993815 4.94092 1.33691C4.14404 1.68001 3.44124 2.15592 2.83252 2.76465C2.2238 3.37337 1.74788 4.07894 1.40479 4.88135C1.06169 5.67822 0.890137 6.5332 0.890137 7.44629ZM2.30957 7.44629C2.30957 6.72689 2.44238 6.05452 2.70801 5.4292C2.97917 4.79834 3.3527 4.24495 3.82861 3.76904C4.31006 3.2876 4.86344 2.91406 5.48877 2.64844C6.11963 2.37728 6.79476 2.2417 7.51416 2.2417C8.23356 2.2417 8.90592 2.37728 9.53125 2.64844C10.1621 2.91406 10.7155 3.2876 11.1914 3.76904C11.6673 4.24495 12.0409 4.79834 12.312 5.4292C12.5832 6.05452 12.7188 6.72689 12.7188 7.44629C12.7188 8.16569 12.5832 8.84082 12.312 9.47168C12.0409 10.097 11.6673 10.6476 11.1914 11.1235C10.7155 11.5994 10.1621 11.973 9.53125 12.2441C8.90592 12.5153 8.23356 12.6509 7.51416 12.6509C6.79476 12.6509 6.11963 12.5153 5.48877 12.2441C4.86344 11.973 4.31006 11.5994 3.82861 11.1235C3.3527 10.6476 2.97917 10.097 2.70801 9.47168C2.44238 8.84082 2.30957 8.16569 2.30957 7.44629Z" fill="#3C3C43" fill-opacity="0.6"/>
</svg>
