<svg width="27" height="27" viewBox="0 0 27 27" fill="none" xmlns="http://www.w3.org/2000/svg">
<path d="M22.656 8.26423L9.74458 1.84328C1.07161 -2.47736 -2.48807 1.06316 1.85595 9.68944L3.16821 12.2998C3.54529 13.0649 3.54529 13.9501 3.16821 14.7152L1.85595 17.3106C-2.48807 25.9368 1.05653 29.4774 9.74458 25.1567L22.656 18.7358C28.448 15.8553 28.448 11.1447 22.656 8.26423V8.26423ZM17.784 14.6252H9.63899C9.02057 14.6252 8.50774 14.1151 8.50774 13.5C8.50774 12.8849 9.02057 12.3748 9.63899 12.3748H17.784C18.4025 12.3748 18.9153 12.8849 18.9153 13.5C18.9153 14.1151 18.4025 14.6252 17.784 14.6252Z" fill="black" fill-opacity="0.45"/>
</svg>
